<svg width="24" height="24" viewBox="0 0 24 24" fill="none" xmlns="http://www.w3.org/2000/svg">
<path d="M6.77966 18.5652C10.524 18.5652 13.5593 15.5285 13.5593 11.7826C13.5593 8.03668 10.524 5 6.77966 5C3.03536 5 0 8.03668 0 11.7826C0 15.5285 3.03536 18.5652 6.77966 18.5652Z" fill="#7ED1FF"/>
<path d="M17.5729 18.2395C19.445 18.2395 20.9627 15.3547 20.9627 11.796C20.9627 8.23738 19.445 5.35254 17.5729 5.35254C15.7007 5.35254 14.183 8.23738 14.183 11.796C14.183 15.3547 15.7007 18.2395 17.5729 18.2395Z" fill="#7ED1FF"/>
<path d="M22.8068 17.5614C23.4658 17.5614 24 14.9863 24 11.8098C24 8.63321 23.4658 6.05811 22.8068 6.05811C22.1478 6.05811 21.6136 8.63321 21.6136 11.8098C21.6136 14.9863 22.1478 17.5614 22.8068 17.5614Z" fill="#7ED1FF"/>
</svg>
