<svg width="125" height="46" viewBox="0 0 125 46" fill="none" xmlns="http://www.w3.org/2000/svg">
<g clip-path="url(#clip0_388_4978)">
<path d="M64.825 20.5715C64.825 20.9118 64.7829 21.2184 64.6995 21.4915C64.6281 21.7438 64.5208 21.9847 64.3807 22.2071C64.2535 22.407 64.095 22.5856 63.9112 22.7364C63.7402 22.8768 63.5532 22.9969 63.354 23.0942C63.1621 23.1862 62.9665 23.2548 62.7657 23.2986C62.5701 23.3425 62.3841 23.3651 62.2092 23.3651H55.9324V21.6441H62.2092C62.5221 21.6441 62.7642 21.547 62.9347 21.3528C63.1104 21.1586 63.1975 20.8986 63.1975 20.5715C63.1975 20.4131 63.1754 20.267 63.1289 20.1349C63.0862 20.0081 63.0182 19.8912 62.9288 19.791C62.8439 19.6925 62.7366 19.6152 62.6159 19.5653C62.4874 19.5111 62.3489 19.4842 62.2092 19.4865H58.4671C58.2043 19.4865 57.9209 19.4376 57.6153 19.3405C57.303 19.2345 57.0142 19.0705 56.7643 18.8571C56.5059 18.6366 56.2889 18.3474 56.114 17.9904C55.9428 17.6326 55.8571 17.196 55.8571 16.6798C55.8571 16.1635 55.9428 15.7284 56.114 15.3757C56.2889 15.0179 56.5052 14.7288 56.7643 14.5083C57.027 14.2834 57.3105 14.122 57.6153 14.0249C57.889 13.9289 58.1767 13.8776 58.4671 13.873H64.005V15.594H58.4671C58.1578 15.594 57.9157 15.6933 57.7408 15.8919C57.5695 16.0905 57.4839 16.3534 57.4839 16.6798C57.4839 17.0105 57.5695 17.2734 57.7408 17.4676C57.9157 17.6574 58.1578 17.7524 58.4671 17.7524H62.2217C62.3967 17.7567 62.5827 17.783 62.7783 17.8312C63.1998 17.9318 63.5906 18.1317 63.9171 18.4139C64.0928 18.5599 64.2471 18.7359 64.3807 18.9433C64.518 19.1506 64.6265 19.3886 64.7054 19.6588C64.7851 19.9275 64.825 20.232 64.825 20.5715ZM79.2496 15.594H75.6632V23.3651H74.0364V15.594H70.4441V13.873H79.2496V15.594ZM94.0056 23.3651H92.3781V21.0352H86.6586V23.3651H85.0311V18.6191C85.0311 17.9261 85.144 17.2887 85.3691 16.706C85.5785 16.1486 85.8976 15.6379 86.308 15.2034C86.7088 14.7842 87.1924 14.4509 87.7288 14.2242C88.2946 13.9864 88.904 13.8668 89.5187 13.873H93.1856C93.2948 13.8733 93.4028 13.8958 93.5029 13.9391C93.6029 13.9824 93.6929 14.0457 93.7672 14.1249C93.8425 14.2038 93.9008 14.2965 93.9429 14.4024C93.9842 14.5083 94.0056 14.6214 94.0056 14.7405V23.3651ZM86.6586 19.3142H92.3781V15.594H89.5187C89.4119 15.5983 89.3052 15.6071 89.1991 15.6203C89.0103 15.6395 88.8239 15.6772 88.6426 15.7327C88.4117 15.8039 88.1893 15.8994 87.979 16.0175C87.7339 16.1549 87.5154 16.3344 87.334 16.5476C87.1225 16.7995 86.9573 17.0862 86.8461 17.3946C86.7213 17.7305 86.6586 18.1379 86.6586 18.6191V19.3142ZM110.37 23.3651H108.06L104.399 19.4865H103.255V17.7516H104.399L108.06 13.873H110.37L105.758 18.6191L110.37 23.3651ZM102.604 23.3651H100.976V13.873H102.604V23.3651ZM123.768 19.4865H118.63V17.7516H123.768V19.4865ZM124.5 23.3651H118.63C118.405 23.3651 118.158 23.3235 117.892 23.2395C117.619 23.1524 117.366 23.0129 117.147 22.8292C116.909 22.6192 116.716 22.3649 116.577 22.0807C116.427 21.7719 116.352 21.3944 116.352 20.949V14.7405C116.352 14.6207 116.373 14.5083 116.415 14.4024C116.454 14.3006 116.511 14.2066 116.584 14.1249C116.659 14.0449 116.75 13.9812 116.851 13.9378C116.953 13.8944 117.062 13.8724 117.172 13.873H124.5V15.594H117.979V20.949C117.979 21.1739 118.036 21.3462 118.148 21.4652C118.261 21.5842 118.425 21.6441 118.642 21.6441H124.5V23.3651Z" fill="white"/>
<path d="M62.6284 32.3197C62.6284 32.5519 62.5974 32.7615 62.534 32.9477C62.4794 33.1217 62.3982 33.2864 62.2933 33.4362C62.1956 33.5746 62.0759 33.6966 61.939 33.7976C61.5673 34.0719 61.1171 34.2223 60.6533 34.2269H55.914V33.0514H60.6533C60.8895 33.0514 61.0725 32.9856 61.2017 32.8535C61.3345 32.7206 61.4002 32.5432 61.4002 32.3205C61.4002 32.2109 61.3825 32.1116 61.3486 32.0211C61.3152 31.933 61.2633 31.8528 61.1964 31.7858C61.1295 31.7189 61.0491 31.6667 60.9603 31.6327C60.8624 31.5954 60.7582 31.5771 60.6533 31.5786H57.8279C57.6286 31.5786 57.4145 31.5458 57.185 31.4793C56.9525 31.4086 56.735 31.2968 56.5428 31.1493C56.3388 30.9885 56.1714 30.787 56.0513 30.5579C55.9221 30.3133 55.8571 30.0146 55.8571 29.662C55.8571 29.31 55.9221 29.0129 56.0513 28.7719C56.1671 28.5501 56.3273 28.354 56.5222 28.1954C56.7171 28.0369 56.9426 27.9193 57.185 27.8497C57.3927 27.7841 57.6091 27.7491 57.8271 27.746H62.0099V28.9216H57.8279C57.5946 28.9216 57.4116 28.9888 57.2795 29.1246C57.1503 29.2604 57.0861 29.4393 57.0861 29.662C57.0861 29.8883 57.1503 30.0672 57.2795 30.2001C57.4123 30.3301 57.5946 30.3943 57.8279 30.3943H60.6621C60.795 30.3972 60.9352 30.4162 61.0829 30.4491C61.2305 30.4783 61.3774 30.5272 61.522 30.5936C61.6696 30.6594 61.8099 30.7441 61.9427 30.8463C62.2239 31.0632 62.4316 31.3596 62.5384 31.6962C62.5974 31.8802 62.6277 32.0876 62.6277 32.3197H62.6284ZM72.8983 31.5786H69.0174V30.3943H72.8975V31.5786H72.8983ZM73.4511 34.2269H69.0174C68.8476 34.2269 68.6616 34.1984 68.4601 34.1415C68.2567 34.0833 68.066 33.9883 67.8977 33.8611C67.7214 33.7209 67.5753 33.5471 67.4681 33.35C67.3545 33.1397 67.2984 32.882 67.2984 32.5775V28.3375C67.2984 28.2557 67.3131 28.179 67.3449 28.1067C67.3752 28.0362 67.4185 27.9718 67.4726 27.9169C67.5298 27.8624 67.5973 27.8195 67.6711 27.7906C67.7493 27.7599 67.8328 27.7445 67.9169 27.7453H73.4504V28.9209H68.5266V32.5768C68.5266 32.7301 68.5686 32.8476 68.6535 32.9294C68.7391 33.0105 68.8631 33.0514 69.027 33.0514H73.4504V34.2269H73.4511ZM85.0909 29.9241C85.0909 30.1928 85.0562 30.4323 84.9868 30.6433C84.9227 30.8436 84.8271 31.0326 84.7034 31.2033C84.5896 31.3599 84.4525 31.4985 84.2967 31.6144C84.1458 31.7269 83.9826 31.8224 83.8103 31.8992C83.6427 31.9722 83.473 32.0248 83.2995 32.0576C83.1409 32.0896 82.9795 32.1062 82.8175 32.1073L85.3839 34.2269H83.484L80.9229 32.1073H80.0394V30.9317H82.8175C82.9615 30.9223 83.1032 30.892 83.2383 30.8419C83.3674 30.7908 83.4774 30.7229 83.5689 30.6382C83.6634 30.5542 83.7357 30.4535 83.7867 30.3359C83.8369 30.2154 83.862 30.0782 83.862 29.9248V29.183C83.8649 29.1318 83.8553 29.0807 83.8339 29.034C83.8211 29.0018 83.7977 28.9748 83.7675 28.9574C83.7426 28.9393 83.7133 28.9282 83.6826 28.9252C83.6559 28.9224 83.629 28.9209 83.6021 28.9209H79.5478V34.2269H78.3189V28.3382C78.3186 28.2589 78.3347 28.1804 78.3661 28.1075C78.3967 28.037 78.4399 27.9727 78.4938 27.9176C78.5511 27.8632 78.6185 27.8204 78.6923 27.7913C78.7706 27.7607 78.854 27.7453 78.9381 27.746H83.6021C83.876 27.746 84.1077 27.7942 84.2967 27.8906C84.4856 27.9841 84.6384 28.1031 84.755 28.2484C84.8746 28.3893 84.9595 28.5434 85.0104 28.7084C85.0636 28.8741 85.0909 29.0296 85.0909 29.1742V29.9241ZM96.7447 27.746L93.5362 33.9962C93.4848 34.0934 93.4058 34.1737 93.3088 34.2269C93.2113 34.2873 93.0984 34.3187 92.9833 34.3175C92.8682 34.3179 92.7552 34.2865 92.6571 34.2269C92.5617 34.172 92.4833 34.0921 92.4305 33.9962L89.2264 27.746H90.6015L92.9833 32.4147L95.374 27.746H96.7447ZM102.355 34.2269H101.126V27.746H102.355V34.2269ZM113.536 34.2269H109.103C108.98 34.2258 108.856 34.2136 108.735 34.1904C108.463 34.1362 108.207 34.0235 107.984 33.8604C107.865 33.7718 107.761 33.6671 107.672 33.5493C107.471 33.2651 107.368 32.9242 107.379 32.5775V29.3955C107.379 29.2874 107.392 29.1713 107.417 29.0479C107.476 28.7837 107.596 28.5364 107.767 28.325C107.857 28.2133 107.967 28.1148 108.092 28.0308C108.221 27.9432 108.37 27.8738 108.536 27.8227C108.72 27.7692 108.912 27.7433 109.103 27.746H113.536V28.9216H109.103C108.943 28.9216 108.82 28.9617 108.735 29.0428C108.65 29.1246 108.607 29.245 108.607 29.4049V32.5775C108.607 32.7279 108.65 32.8455 108.735 32.9302C108.823 33.0112 108.946 33.0521 109.103 33.0521H113.536V34.2276V34.2269ZM123.947 31.5786H120.068V30.3943H123.947V31.5786ZM124.5 34.2269H120.068C119.879 34.2242 119.691 34.1954 119.51 34.1415C119.306 34.0834 119.116 33.9883 118.948 33.8611C118.771 33.721 118.625 33.5472 118.518 33.35C118.404 33.1397 118.347 32.882 118.347 32.5775V28.3375C118.347 28.2582 118.363 28.1797 118.394 28.1067C118.425 28.0363 118.468 27.972 118.522 27.9169C118.58 27.8625 118.647 27.8196 118.721 27.7906C118.799 27.76 118.882 27.7446 118.967 27.7453H124.5V28.9209H119.576V32.5768C119.576 32.7301 119.619 32.8476 119.704 32.9294C119.789 33.0105 119.913 33.0514 120.077 33.0514H124.5V34.2269Z" fill="#9A9A9A"/>
<path d="M2.80655 20.3101L0.985672 22.1187L24.6564 45.8196L34.6723 35.688L17.1913 19.0433L18.466 17.7764L16.6451 15.9678L13.5495 19.0433L30.4836 35.869L24.4756 42.0206L2.80581 20.3101H2.80655Z" fill="#2998FA"/>
<path d="M45.4936 25.3292L47.3048 23.5199L23.5795 0L13.6189 10.1317L31.1856 26.7764L29.7374 28.0432L31.548 29.8525L34.6273 26.9575L17.784 9.9506L23.7603 3.79902L45.4943 25.3292H45.4936Z" fill="white"/>
<path d="M21.3379 10.7056L23.3315 12.5332L23.8755 11.9848L41.0989 29.1582L43.0933 27.1488L23.8755 8.33112L21.3372 10.7056H21.3379Z" fill="#2998FA"/>
<path d="M26.2514 34.9753L24.4667 33.1799L23.7529 33.8984L7.16057 16.6615L5.19724 18.6366L23.7529 37.4893L26.2507 34.9753H26.2514Z" fill="white"/>
</g>
<defs>
<clipPath id="clip0_388_4978">
<rect width="124" height="46" fill="white" transform="translate(0.5)"/>
</clipPath>
</defs>
</svg>
