<?xml version="1.0" standalone="no"?>
<!DOCTYPE svg PUBLIC "-//W3C//DTD SVG 20010904//EN"
 "http://www.w3.org/TR/2001/REC-SVG-20010904/DTD/svg10.dtd">
<svg version="1.0" xmlns="http://www.w3.org/2000/svg"
 width="96.000000pt" height="96.000000pt" viewBox="0 0 96.000000 96.000000"
 preserveAspectRatio="xMidYMid meet">
<metadata>
Created by potrace 1.14, written by Peter Selinger 2001-2017
</metadata>
<g transform="translate(0.000000,96.000000) scale(0.100000,-0.100000)"
fill="#000000" stroke="none">
<path d="M382 847 l-103 -103 162 -154 c88 -85 168 -160 178 -167 13 -10 14
-15 4 -31 -10 -16 -9 -23 6 -36 16 -15 20 -14 48 14 l31 31 -169 171 c-93 94
-169 173 -169 177 0 4 26 32 58 64 l58 57 219 -215 c121 -118 225 -215 232
-215 6 0 14 8 18 19 4 14 -48 71 -231 252 -129 129 -236 235 -238 236 -1 1
-48 -44 -104 -100z"/>
<path d="M466 759 c-33 -26 -33 -37 2 -51 15 -6 105 -88 199 -182 l173 -171
20 21 20 20 -194 192 -194 191 -26 -20z"/>
<path d="M305 590 l-29 -30 172 -170 c194 -191 186 -171 100 -249 l-49 -45
-219 219 c-216 216 -219 219 -239 200 -21 -18 -19 -20 217 -256 130 -131 242
-239 248 -239 6 0 54 45 107 101 l95 100 -101 98 c-56 54 -135 128 -175 166
-55 52 -71 73 -66 87 5 18 -10 48 -25 48 -4 0 -20 -14 -36 -30z"/>
<path d="M126 591 c-11 -12 -17 -23 -15 -25 217 -222 372 -376 378 -376 4 0
16 9 27 21 21 23 10 54 -20 54 -10 0 -92 78 -184 174 l-167 173 -19 -21z"/>
</g>
</svg>
