<svg width="30" height="22" viewBox="0 0 30 22" fill="none" xmlns="http://www.w3.org/2000/svg">
<path d="M24.3333 5.66658L19 10.9999H23C23 15.4133 19.4133 18.9999 15 18.9999C13.6533 18.9999 12.3733 18.6666 11.2667 18.0666L9.31999 20.0133C10.96 21.0533 12.9067 21.6666 15 21.6666C20.8933 21.6666 25.6667 16.8933 25.6667 10.9999H29.6667L24.3333 5.66658ZM6.99999 10.9999C6.99999 6.58658 10.5867 2.99992 15 2.99992C16.3467 2.99992 17.6267 3.33325 18.7333 3.93325L20.68 1.98658C19.04 0.946585 17.0933 0.333252 15 0.333252C9.10666 0.333252 4.33333 5.10658 4.33333 10.9999H0.333328L5.66666 16.3333L11 10.9999H6.99999Z" fill="#511281"/>
</svg>
